<svg id="logotype" data-name="logotype" xmlns="http://www.w3.org/2000/svg" viewBox="0 0 977.94 131.75"><title>pyr_logotype</title><path class="cls-1" d="M34,3.36C33,10.08,7.15,83.42,7.06,83.35c-12.6-9.64-.77-40.82,6.05-50.8C22.6,18.69,41.33,7,58.06,15.5,82,27.73,44.34,71.93,32.52,46.13"/><path class="cls-1" d="M61.85,63.3c10.22-7.9,23.42-13,31-23.51,3.55-4.88,17.12-31,11.64-36.52-14.48-14.74-48,67.19-28.77,77,12,6.11,28.82-48.8,55.07-31.83,0.95,1,1.37,4.22,1.36,5.64C132.36,32.63,85,53.48,98.69,76c8.93,14.73,29.26-24.71,35-30.3-5.52,5.43-16.46,24-5.88,29.45,9.81,5,17-7.79,21.68-13.81,1.75-2.23,12.26-12.21,12.28-14-0.1,12-8.62,21.74-8.72,33.64,0.07-8.43,24.31-36.48,34-32,9.52,4.38-4.91,26-3,29.15,6.87,11.25,24.92-10.82,28.17-14.88"/><path class="cls-1" d="M251.94,26.62c5.57,0.09,25.54-25,32.61-17.73s-33.12,66.71-6.45,62.74C288.83,70,302.23,50.52,308,42.55c0.77-1.07,18-31.56,11.67-31.67,1.33,0-10,62.34-11.78,67.89-3.72,11.75-8.11,23.35-18.29,31-6.73,5-14.57,10-15.06-1.49-0.86-20.2,34.77-31.74,47.23-41.91,6.57-5.36,26.31-33.25,36.69-22.52C352,37.19,319.8,68.2,332.53,81.35c11.52,11.9,32.11-15.13,30.2-26.22-3.16-18.39-12,19.58,5.17,11.35,1.94-.93,30.39-21.44,29.87-22,3.26,3.36-11.63,25.12-3.37,33.66,11.89,12.29,31.38-30,36.71-33.49-3,2-10,31.07-5.83,35.41,4.55,4.71,33.7-25.64,35.8-29.72S467.66,40,462,39.19c-10-1.5,15.6,21.48,15.77,10.83-0.11,6.68-15.54,25.37-10.34,30.74,9,9.31,27.05-14.66,34-19.11"/><path class="cls-1" d="M577.4,7.36c-3.38,14.41-33,78.13-33,77.42,0.39-28.48,4-76.69,44.29-74.83C607.77,10.83,609,46.9,560.6,44.63c1.77,0.08,27.58,27.07,34.88,33.87s13.9,0.92,25.81-7.82C631,63.52,661,59.85,652.75,42.84c-7-14.59-33.25,23.77-20.72,33.68,10.54,8.33,26.09-11.83,31.75-17.39,4.45-4.37,9.42-12.41,15.37-13s12.46,1.75,16.8,8.45C669.41,27.48,651.59,81.69,678.21,83c11.91,0.58,22.92-15.27,31.48-21.54C724.47,50.6,733.93,48.23,736.54,47,718.21,55.82,704.85,67.25,715,80.45c11.57,11.89,30.29-9,30.36-19.71,0.15-26.77-21.14,1-6.16,8.73,8.29,4.29,36.08-10.58,36.22-20.47-0.17,12.57-11.1,48.74,11.89,28.33,5.47-4.86,26.12-27.23,18.15-35.4-5.65-5.81-8.08,20.21-6.32,23.87,5.86,12.13,53.18-6.9,48.15-17.31-8.21-17-32.55,20.89-22.2,29.39,8.68,7.14,27.24-4.61,32.35-11,2.25-2.81,13.79-30.16,13-30-5,.77-6.37,7.43-4.21,10.88,2.83,4.53,11.89,2.68,15.93,4.14,1.41,0.51,7.25-1.23,8.51.21,3.29,3.76-7.4,18.18-8.67,21.56-5.62,15,3.81,13.65,15.92,4.68,7.81-5.78,25.81-35.27,25.8-34.76-0.12,9.06-18.38,40.85,3.53,31.95,10-4.08,16-22.9,23.4-30.09-9.48,9.23-10.71,33.26-14.79,45.25C934.23,95.47,910,141.23,899.09,130c-11.68-12,24.37-34.47,31.84-38.77,13.62-7.84,40.11-27.09,47-42.12"/></svg>