<svg id="Layer_1" data-name="Layer 1" xmlns="http://www.w3.org/2000/svg" viewBox="0 0 100.68 14.02"><defs></defs><title>Plan Your Recovery</title><path class="cls-1" d="M3.67,0.53c-0.1.69-2.75,8.2-2.76,8.19-1.29-1-.08-4.18.62-5.2C2.5,2.1,4.42.9,6.13,1.77,8.58,3,4.72,7.55,3.51,4.91"/><path class="cls-1" d="M6.52,6.67c1-.81,2.4-1.33,3.17-2.41,0.36-.5,1.75-3.17,1.19-3.74C9.4-1,6,7.4,7.94,8.4c1.23,0.63,3-5,5.64-3.26a1.13,1.13,0,0,1,.14.58c0-2.2-4.83-.06-3.43,2.24,0.91,1.51,3-2.53,3.58-3.1-0.57.56-1.69,2.46-.6,3s1.74-.8,2.22-1.41A11.7,11.7,0,0,0,16.75,5c0,1.23-.88,2.23-0.89,3.45,0-.86,2.49-3.74,3.48-3.28s-0.5,2.66-.31,3c0.7,1.15,2.55-1.11,2.89-1.52"/><path class="cls-1" d="M26,2.91c0.57,0,2.62-2.56,3.34-1.82s-3.39,6.83-.66,6.43c1.1-.17,2.47-2.16,3.06-3,0.08-.11,1.84-3.23,1.2-3.24,0.14,0-1,6.38-1.21,7a5.93,5.93,0,0,1-1.87,3.17c-0.69.51-1.49,1-1.54-.15C28.21,9.2,31.86,8,33.14,7c0.67-.55,2.69-3.41,3.76-2.31-0.66-.68-4,2.49-2.66,3.84S37.53,7,37.33,5.83C37,3.95,36.1,7.84,37.86,7c0.2-.1,3.11-2.2,3.06-2.25,0.33,0.34-1.19,2.57-.35,3.45,1.22,1.26,3.21-3.07,3.76-3.43-0.31.2-1,3.18-.6,3.63s3.45-2.63,3.67-3,0.67-1.06.09-1.14c-1-.15,1.6,2.2,1.62,1.11,0,0.68-1.59,2.6-1.06,3.15,0.92,1,2.77-1.5,3.48-2"/><path class="cls-1" d="M59.32,0.94a84.24,84.24,0,0,1-3.38,7.93C56,6,56.35,1,60.47,1.2c2,0.09,2.08,3.78-2.88,3.55,0.18,0,2.82,2.77,3.57,3.47s1.42,0.09,2.64-.8c1-.73,4.07-1.11,3.22-2.85C66.32,3.08,63.63,7,64.91,8,66,8.87,67.58,6.81,68.16,6.24s1-1.27,1.57-1.33a1.8,1.8,0,0,1,1.72.87C68.74,3,66.92,8.55,69.64,8.68,70.86,8.74,72,7.12,72.87,6.48A10.14,10.14,0,0,1,75.62,5c-1.88.9-3.25,2.07-2.21,3.43s3.1-.92,3.11-2c0-2.74-2.17.1-.63,0.89,0.85,0.44,3.7-1.08,3.71-2.1,0,1.29-1.14,5,1.22,2.9,0.56-.5,2.68-2.79,1.86-3.63C82.1,3.88,81.85,6.55,82,6.92c0.6,1.24,5.45-.71,4.93-1.77-0.84-1.74-3.33,2.14-2.27,3C85.57,8.89,87.47,7.69,88,7A22.54,22.54,0,0,0,89.33,4a0.75,0.75,0,0,0-.43,1.11c0.29,0.46,1.22.27,1.63,0.42a2.67,2.67,0,0,1,.87,0c0.34,0.39-.76,1.86-0.89,2.21-0.58,1.54.39,1.4,1.63,0.48a24.62,24.62,0,0,0,2.64-3.56c0,0.93-1.88,4.18.36,3.27,1-.42,1.64-2.35,2.4-3.08-1,.95-1.1,3.41-1.51,4.63-0.17.49-2.65,5.17-3.77,4s2.5-3.53,3.26-4c1.39-.8,4.11-2.77,4.81-4.31"/></svg>