<svg id="pyr-wing" data-name="pyr-wing" xmlns="http://www.w3.org/2000/svg" viewBox="0 0 95.12 100"><defs><style>.cls-1{fill:#0098ff;}</style></defs><title>pyr_wing</title><path class="cls-1" d="M57.29,53.94a1.57,1.57,0,0,1-.42.57l0,0a0.8,0.8,0,0,1,0-1.09A0.88,0.88,0,0,1,57.38,53h0A1.14,1.14,0,0,1,57.29,53.94Zm-3-.16a1.14,1.14,0,0,0-.07,1,0.9,0.9,0,0,0,.94.52,2.77,2.77,0,0,0,1.32-.49,1.29,1.29,0,0,1,0-1.74,1.74,1.74,0,0,1,.4-0.38A3.68,3.68,0,0,0,54.28,53.78Zm5.09,3.44c-0.28-.51.2-1.44,0.71-2.42h0a5.32,5.32,0,0,1-1,.3,4.69,4.69,0,0,1-2.15,0,3.63,3.63,0,0,1-1.51.69Zm-6.19-3.67a6.7,6.7,0,0,1-2,.69l2.66,1A1.59,1.59,0,0,1,53.74,55v0a1.65,1.65,0,0,1,.12-1.46,1.78,1.78,0,0,1,.32-0.37h0A8.26,8.26,0,0,0,53.18,53.56Zm10.5,0.83a2.86,2.86,0,0,0-.55.84L63,55.48a2.23,2.23,0,0,0,.65-0.78A0.46,0.46,0,0,0,63.68,54.39Zm6.44,11.28a0.3,0.3,0,0,0,.27.19c0.91,0.1,3-1.69,3.84-2.47-1.44.28-3.69,1-4.1,1.78A0.52,0.52,0,0,0,70.12,65.67Zm-2.7-9.38a0.37,0.37,0,0,0-.25-0.4l-0.13,0A3.06,3.06,0,0,0,65.25,57l0.58,0C67,56.8,67.44,56.48,67.42,56.29ZM71.59,61a5,5,0,0,1-1.09.23l4.17,1.52,0.09,0c0.18-.26.36-0.58,0.55-0.9l0.37-.62a2.49,2.49,0,0,1-1.26.52,1.12,1.12,0,0,1-1.15-.4c-0.25-.47.2-1.15,0.72-1.83A11.14,11.14,0,0,1,71.59,61ZM44.29,46.14A1.27,1.27,0,0,0,44.81,45a1,1,0,0,0-.65-0.8,3.93,3.93,0,0,0-1-.27c-0.48.61-1.29,1.51-2.08,2.37A3.54,3.54,0,0,0,44.29,46.14Zm-6.09,2.43c0.54-.55,1.27-1.32,2-2.11a0.25,0.25,0,0,1,.3-0.38h0c0.74-.8,1.46-1.6,2-2.2a3,3,0,0,0-.94.25C40,44.83,38.93,46.79,38.19,48.57Zm4.38,2.54a1.66,1.66,0,0,1-.18-0.28c-0.17-.33-0.5-1-0.84-1.72s-0.79-1.66-1.07-2.21l-0.19.2c-0.79.84-1.46,1.53-1.79,1.87L38,49.46Zm6.29-1.19A0.84,0.84,0,0,0,49,49.25,0.24,0.24,0,0,0,48.85,49H48.74a3.45,3.45,0,0,0-2.06,1.4l0,0.06h0A3.44,3.44,0,0,0,48.87,49.92ZM62.32,56.6a10.15,10.15,0,0,1-1.24.65,3.82,3.82,0,0,1-.9.27l9.34,3.4A1.36,1.36,0,0,1,70,59.66a4.09,4.09,0,0,1,.44-0.4,4.55,4.55,0,0,0,1.06-1.09,2.37,2.37,0,0,0-.31-0.08,1,1,0,0,1-.41-0.15,2.12,2.12,0,0,0-.44-0.22,2.38,2.38,0,0,1-.82-0.47h0a14.19,14.19,0,0,1-1.3,1.3,4.54,4.54,0,0,1-2.89.5,1.39,1.39,0,0,1-.92-0.61,1.09,1.09,0,0,1,0-1A2.46,2.46,0,0,1,62.32,56.6Zm-16.9-5.53-0.31.1a7.48,7.48,0,0,1-1.42.35l5.9,2.15a1.55,1.55,0,0,1-.34-1.21,2.45,2.45,0,0,1,.3-0.91l0,0c-1,.52-2.8,1.49-3.55.31A1.16,1.16,0,0,1,45.82,51,2.37,2.37,0,0,0,45.42,51.07Zm50.3,32.46c-1.65-5.7-3.93-10-2.63-15.92,1-4.51,2.06-7.52,1.19-12.24C92.88,47.8,90,42.94,85.13,37.17c-5.5-6.49-12.57-8-20-11.54-10.57-5-21.62-7.35-32.53-11.52A94.24,94.24,0,0,1,16.92,6.54C14,4.78,9.81.26,6.22,0-3.41-.62,8.09,12.74,10.7,14.91c2.84,2.37,7.71,4.25,10.13,6.93l10.74,3.91a3.35,3.35,0,0,1,.69-2.29,8.47,8.47,0,0,1,1.94-2.13,5.36,5.36,0,0,1,2.15-.9c0.42-.54.72-0.93,0.78-1a0.25,0.25,0,0,1,.45.24,8,8,0,0,1-.54.74,3.08,3.08,0,0,1,2.36,1,1.65,1.65,0,0,1,.19,2.05,3.23,3.23,0,0,1-3.06,1.55,1.38,1.38,0,0,1-1.07-1.4,0.25,0.25,0,0,1,.5,0,0.91,0.91,0,0,0,.68.94,2.76,2.76,0,0,0,2.51-1.31A1.15,1.15,0,0,0,39,21.67a2.81,2.81,0,0,0-2.4-.79q-0.69.88-1.88,2.32L33,25.35,32.4,26h0l5.86,2.13a2.22,2.22,0,0,1,.19-1.84l0-.06-0.5.14a0.25,0.25,0,1,1-.15-0.48c0.31-.1.63-0.17,1-0.24,1.11-2,3.48-4.3,4.74-4.31h0a0.8,0.8,0,0,1,.77.49c0.45,1-2.22,3.2-2.48,3.37a6.92,6.92,0,0,1-2.53.86l-0.17,0c-0.07.14-.14,0.27-0.19,0.4a1.54,1.54,0,0,0-.11,1.56c0.22,0.24,1-.26,1.73-0.7l0.79-.48a2.59,2.59,0,0,1,.38-0.27,3.46,3.46,0,0,1,1.24-.42,2.17,2.17,0,0,1,1.32.07,1.62,1.62,0,0,1,.59.3,1.08,1.08,0,0,1,.22.26l0.14-.07h0a0.25,0.25,0,0,1,.21.46h0l-0.2.11a1.43,1.43,0,0,1,0,.18,1.47,1.47,0,0,1-.08.31,0.25,0.25,0,0,1-.49-0.08h0a2.42,2.42,0,0,0-.85,1.15,0.53,0.53,0,0,0,.13.5c0.47,0.51,1.15.12,1.92-.39l0.3-.2c0.09-.05.26-0.14,0.54-0.27a8.71,8.71,0,0,0,1-.54,0.25,0.25,0,0,1,.45.22h0a4.39,4.39,0,0,1-.89,1.33,7.06,7.06,0,0,1,1.87-.75,1.38,1.38,0,0,1,1.3.19c0.66,0.66-.18,1.6-0.8,2.29a4.16,4.16,0,0,0-.44.54,0.33,0.33,0,0,0,.19.25C49.82,32.3,50.82,32,52,31.24a0.25,0.25,0,0,1,.26.43,7.67,7.67,0,0,1-2,.9l26.39,9.6a0.25,0.25,0,0,1-.09.49l-0.09,0-62-22.56c-0.88-.26-1.62-0.46-2-0.54-4.83-1-8,.91-4.54,5.89,2.32,3.34,6.59,4.09,10.12,5.43,0.85,0.32,4.54,2,7.19,3.27l12.45,4.53c0.48-.11,1-0.2,1.42-0.28l0.12,0c0.4-.67,1.1-1.92,1.73-3.07l-0.48.42-0.14.1c-1,.68-2.73,2-3.86,1.75A1,1,0,0,1,35.65,37c-0.29-.82.8-2.07,1.95-3.38a6.57,6.57,0,0,0,1.41-2c-0.17-.36-1.37.11-2.08,0.4a2.62,2.62,0,0,1-1.47.37,0.25,0.25,0,0,1,.17-0.48,4.37,4.37,0,0,0,1.12-.36c1.1-.44,2.35-0.94,2.73-0.14,0.23,0.49-.38,1.23-1.49,2.5-0.86,1-2,2.34-1.85,2.88a0.58,0.58,0,0,0,.49.28c0.91,0.17,2.71-1.12,3.47-1.66l0.15-.1a18.81,18.81,0,0,0,1.61-1.57c0.23-.44.39-0.76,0.43-0.88a0.25,0.25,0,0,1,.34-0.23,0.37,0.37,0,0,1,.25.31,1.57,1.57,0,0,1-.6,1.09c-0.23.44-.56,1.06-1,1.91s-0.93,1.67-1.3,2.31a6.32,6.32,0,0,0,.9-0.24,7.62,7.62,0,0,0,.76-0.39c1-.54,2.33-1.28,3.2-1a1,1,0,0,1,.62.55,0.25,0.25,0,0,1-.46.22,1.79,1.79,0,0,0-1.48.29c-0.93.44-2.17,1.4-1.77,2.24a0.73,0.73,0,0,0,.2.26l0.42,0.15h0.28a3.56,3.56,0,0,0,1.71-.9,2,2,0,0,1,.51-1.58,0.39,0.39,0,0,1,.48-0.12,0.75,0.75,0,0,1,.18.82,2,2,0,0,1-.52.94,0.76,0.76,0,0,0,.37,0c0.23,0,3.09-.91,3.45-1.07l0.05,0a0.25,0.25,0,0,1,.34.12,1.37,1.37,0,0,1-.55,1.19c-0.47.59-1.12,1.4-.87,1.93a0.4,0.4,0,0,0,.28.25c0.66,0.15,2.06-1,2.9-1.62A4.49,4.49,0,0,1,52,39.49h0a0.25,0.25,0,0,1,.14.48,7.09,7.09,0,0,0-1.57,2.82c0.56,0.13,3.67-1.4,4-1.72l0.16-.14,0.1-.09,0-.1a0.68,0.68,0,0,1,0-.74,0.42,0.42,0,0,1,.51,0,0.54,0.54,0,0,1,.33.41,0.7,0.7,0,0,1-.2.53,3.4,3.4,0,0,0,.32.47,1.06,1.06,0,0,0,.34.31v0h0a0.25,0.25,0,0,1,.48.17h0a0.74,0.74,0,0,1-.06.13,5,5,0,0,1-.89.95c-0.41.38-1.17,1.08-1.05,1.33a0.42,0.42,0,0,0,.25.23c0.53,0.19,1.59-.31,2.37-0.68a6.28,6.28,0,0,1,1-.41,0.25,0.25,0,0,1,.12.49,6.29,6.29,0,0,0-.88.37,6.85,6.85,0,0,1-2.21.76l21.44,7.8a0.25,0.25,0,0,1-.09.49l-0.09,0L42.2,40.84a1.22,1.22,0,0,1-.56-0.2l-2.66-1a5.33,5.33,0,0,1-2.48,1.93,1.71,1.71,0,0,1-1.6,0,0.93,0.93,0,0,1-.11-1,2.9,2.9,0,0,1,2.11-1.74l-9.58-3.49c-3.42-.68-16-7.37-14.19.78,0.6,2.73,11.91,8,15.19,9.72l9.08,3.31c1.53-4.06,3-5.11,4-5.55a3.46,3.46,0,0,1,1.56-.3l0.14-.2a0.25,0.25,0,0,1,.43.27,4.64,4.64,0,0,1,.87.26,1.51,1.51,0,0,1,1,1.2,1.77,1.77,0,0,1-.71,1.63c-0.49.39-1.59,0.89-3.61,0.25,0.21,0.41.52,1.06,1,2.11,0.34,0.71.66,1.38,0.83,1.7,0.32,0.61.8,0.5,2.12,0.09l0.31-.1A3.58,3.58,0,0,1,46,50.46a3.15,3.15,0,0,1,.25-0.39c0.67-.91,2-1.77,2.72-1.58a0.74,0.74,0,0,1,.55.69,1.33,1.33,0,0,1-.28,1.06c-0.52.6-1.6,0.65-2.56,0.68H46.36a0.75,0.75,0,0,0,0,.66c0.5,0.78,2.05,0,2.89-.48l0.41-.21c0.14-.07.3-0.16,0.46-0.25a2.39,2.39,0,0,1,1.61-.5,2,2,0,0,1,1.51,1.56,0.25,0.25,0,0,1-.48.17,1.49,1.49,0,0,0-1.51-1.12,2.09,2.09,0,0,0-1.52,1.74,1,1,0,0,0,.7,1.16C51.15,54,52.12,53.5,53,53.1A8.56,8.56,0,0,1,54,52.66a10,10,0,0,1,2.88-.48h0.21a0.25,0.25,0,0,1,.26.36,0.56,0.56,0,0,1,.28.07c0.36,0.2.4,0.71,0.11,1.52a1.82,1.82,0,0,1-.36.58A4.84,4.84,0,0,0,59,54.6a2.27,2.27,0,0,0,1.56-.78A0.25,0.25,0,0,1,61,54h0a10.19,10.19,0,0,1-.5,1c-0.29.56-.9,1.74-0.71,2,0,0,.16.16,1.06-0.21a9.5,9.5,0,0,0,1.4-.76c0.17-.69.82-2,1.32-2.16a0.43,0.43,0,0,1,.52.27,0.93,0.93,0,0,1,0,.75,3.72,3.72,0,0,1-1.38,1.43c0.09,0.35.87,0.6,1.86,0.66l0.08-.11c0.65-.87,1.86-1.66,2.61-1.46a0.87,0.87,0,0,1,.62.83c0.07,0.61-.68,1-2,1.2a8.06,8.06,0,0,1-1,0,0.76,0.76,0,0,0-.1.71,0.91,0.91,0,0,0,.6.38,4.07,4.07,0,0,0,2.5-.43,17,17,0,0,0,1.35-1.39,1.11,1.11,0,0,1,.31-0.82,0.85,0.85,0,0,1,.77-0.26,0.26,0.26,0,0,1,.2.2c0,0.12,0,.18-0.71,1a1.82,1.82,0,0,0,.67.38,2.43,2.43,0,0,1,.56.28l0.22,0.05a0.86,0.86,0,0,1,.68.36c0.19,0.48-.41,1-1.21,1.7a4.67,4.67,0,0,0-.38.33,1,1,0,0,0-.37.71,1.91,1.91,0,0,0,1.47-.13,18.93,18.93,0,0,0,3.21-2.16l0.25-.19a0.31,0.31,0,0,1,.4-0.07,0.25,0.25,0,0,1,.09.29,5.06,5.06,0,0,1-.73,1.08c-0.37.47-1.06,1.36-.93,1.62a0.73,0.73,0,0,0,.68.13,4,4,0,0,0,1.88-1.14,6.25,6.25,0,0,1,1.27-.93,0.25,0.25,0,0,1,.21.46h0a6.39,6.39,0,0,0-2,2.47l-0.28.46A11.37,11.37,0,0,0,80,60.51a0.25,0.25,0,1,1,.36.35c-0.94,1-3.09,1.78-4.79,2.24l1.18,0.43a0.25,0.25,0,0,1-.09.49l-0.09,0-1.61-.59c-0.22.26-3,3-4.46,3H70.33a0.81,0.81,0,0,1-.67-0.48,1,1,0,0,1,0-.94c0.55-1.07,3-1.73,4-2L37.61,49.84a0.2,0.2,0,0,1-.2,0,0.25,0.25,0,0,1-.11-0.1l-8.48-3.08C26.25,47.1,13.93,40,20.59,50c1.74,2.61,16.43,6.74,16,9.29a0.29,0.29,0,0,1-.18-0.16l-6.27-2.62C32.56,60.2,31.37,61.93,36,64c3,1.35,6.72,1.77,9.86,2.64,1.2,0.33,15,4.93,14.66,6.06s-4.71-2-6.12.27c-2.24,3.63,6,7.84,8.4,9.14,5.35,2.85,11.74,3.33,16.69,7,3.49,2.56,5.69,6.61,9.38,8.92C100.73,105.46,97.64,90.17,95.71,83.53ZM41.37,28.91c0.54,0.21,2.06-.89,2.88-1.48l0,0,0.3-.24a1.51,1.51,0,0,0-.58-0.4,2.73,2.73,0,0,0-1,0,5.64,5.64,0,0,0-1.43.61,1.31,1.31,0,0,0-.41,1.28A0.32,0.32,0,0,0,41.37,28.91Zm-2-.32,1.48,0.54a1,1,0,0,1-.17-0.41,1.93,1.93,0,0,1,0-.83A7,7,0,0,1,39.38,28.59Zm7.36,0.86c0.17-.19.34-0.38,0.49-0.57L46.9,29l-0.49.25-0.29.19c-0.66.44-1.78,1.18-2.57,0.32a1,1,0,0,1-.26-0.95,1.39,1.39,0,0,1,0-.14,4.43,4.43,0,0,1-1.63.74l4,1.46A5.13,5.13,0,0,1,46.73,29.45Zm-3.75-6c0.78-.85.89-1.28,0.84-1.4a0.29,0.29,0,0,0-.31-0.19h0c-0.93,0-2.94,1.88-4.07,3.67a5.77,5.77,0,0,0,2.08-.73A10.62,10.62,0,0,0,43,23.48ZM38.81,39.06l0.09-.11-0.26,0Zm8.88-11h0Zm2.4,1.31a1,1,0,0,0-.84-0.06,6.46,6.46,0,0,0-3.06,1.73L48.73,32l0-.07A1.38,1.38,0,0,1,49.27,31C49.73,30.48,50.41,29.72,50.09,29.39Zm-15.6-7.65c-1,.67-2.65,2.7-2.43,3.92,0.69-.82,2.52-3,3.78-4.6A5,5,0,0,0,34.49,21.74ZM42.2,37.86l-0.37.2a7.57,7.57,0,0,1-.82.42,9.08,9.08,0,0,1-1.42.34l-0.2.31-0.08.11,1.85,0.67A2.11,2.11,0,0,1,42.2,37.86Zm-6.93,2.92a0.57,0.57,0,0,0,0,.47,1.44,1.44,0,0,0,1.09-.15,4.71,4.71,0,0,0,2.14-1.63L37.7,39.2C36.56,39.48,35.53,39.92,35.27,40.79Zm13.16-1.69-1.17.37S45.57,40,45.37,40a1.06,1.06,0,0,1-.8-0.16,4.56,4.56,0,0,1-1.34.82l4.38,1.59a1,1,0,0,1-.35-0.41c-0.38-.81.38-1.76,0.93-2.46Zm-3.59-.31A1,1,0,0,0,45,38.5,2,2,0,0,0,44.85,38.78Zm6,2.18c-1,.76-2.08,1.55-2.87,1.44l6.33,2.3a1,1,0,0,1-.13-0.21c-0.27-.58.46-1.26,1.17-1.92l0.48-.46a2.59,2.59,0,0,1-.71-0.81h0L55,41.45c-0.26.25-3.23,1.86-4.31,1.86H50.51A0.45,0.45,0,0,1,50.16,43a1.58,1.58,0,0,1,.27-1.3C50.53,41.53,50.68,41.25,50.85,41Zm-2.19-2.33a0.24,0.24,0,0,0,0,.08h0A0.25,0.25,0,0,1,48.67,38.63Z" transform="translate(-2.44 0)"/></svg>