<svg id="Layer_1" data-name="Layer 1" xmlns="http://www.w3.org/2000/svg" viewBox="0 0 1000 1000"><title>pyr-wing</title><path d="M951.67,831.25c-16.35-56.32-38.83-98.7-25.94-157.32,9.79-44.51,20.36-74.26,11.72-121-13.82-74.71-42-122.77-90.31-179.75-54.3-64.08-124.24-79-197.69-114-104.4-49.77-213.63-72.6-321.39-113.79-53.63-20.5-105.91-44.81-154.89-74.86C144.77,53.15,102.92,8.57,67.45,6.2c-95.2-6.37,18.46,125.62,44.23,147.12,28.09,23.44,76.2,42,100.05,68.43l0.85,3.08a2.5,2.5,0,1,1-1.71,4.7l-61.24-25.06c-8.73-2.55-16-4.54-19.93-5.35-47.72-10-79.07,9-44.87,58.23,23,33,65.09,40.46,100,53.63,8.36,3.16,44.88,20.18,71,32.32l19.86,6.65a2.5,2.5,0,1,1-1.71,4.7l1.93,1.28c-33.78-6.69-157.88-72.8-140.24,7.75,5.9,26.95,117.66,79,150.05,96l7.69,2.86a2.5,2.5,0,1,1-1.71,4.7l-0.86-.38c-25.5,4.52-147.15-66-81.43,32.72,17.14,25.75,162.33,66.64,158.46,91.8-1.11,0-1.11-1.11-1.74-1.55-20.64-8.66-41.33-17.22-62-25.84,23.58,36.78,11.79,53.86,57.09,74.45,29.42,13.37,66.35,17.48,97.45,26.09,11.85,3.28,148.44,48.7,144.83,59.84-3.35,10.33-46.55-19.82-60.42,2.64-22.14,35.86,58.88,77.47,83,90.32,52.85,28.13,116,32.88,164.95,68.8,34.45,25.26,56.22,65.28,92.64,88.12C1001.23,1047.94,970.73,896.89,951.67,831.25Z"/></svg>