<svg id="Layer_1" data-name="Layer 1" xmlns="http://www.w3.org/2000/svg" viewBox="0 0 100 54.56"><title>pyr</title><path d="M100,54.56H0V0H100V54.56ZM5.49,49.06h89V5.49h-89V49.06Zm29.25-26.3A7.21,7.21,0,0,1,34,26.23a6.27,6.27,0,0,1-2.06,2.27,9.07,9.07,0,0,1-3,1.26,15.31,15.31,0,0,1-3.52.4H22.59V39H16.92V15.53h8.63a16.22,16.22,0,0,1,3.6.38,8.49,8.49,0,0,1,2.92,1.23,6,6,0,0,1,2,2.22A7.34,7.34,0,0,1,34.74,22.76Zm-5.68,0a2.54,2.54,0,0,0-.33-1.36,2.32,2.32,0,0,0-.9-0.83,3.84,3.84,0,0,0-1.28-.4,10.66,10.66,0,0,0-1.48-.1H22.59v5.54H25a8.52,8.52,0,0,0,1.53-.13,4.1,4.1,0,0,0,1.31-.46,2.49,2.49,0,0,0,.91-0.88A2.62,2.62,0,0,0,29.06,22.8Zm22,6.27V39H45.35v-10L36.52,15.53H43.4l5,8.7,5-8.7h6.64ZM76.45,39l-5.1-9.33H69.41V39H63.87V15.53h9a15.56,15.56,0,0,1,3.3.35A8.59,8.59,0,0,1,79,17.05a6.17,6.17,0,0,1,2,2.19,6.85,6.85,0,0,1,.76,3.39,6.24,6.24,0,0,1-1.29,4A7.06,7.06,0,0,1,76.94,29L83.08,39H76.45Zm-0.23-16.3a2.35,2.35,0,0,0-.35-1.34,2.4,2.4,0,0,0-.9-0.8,3.93,3.93,0,0,0-1.23-.38,9.13,9.13,0,0,0-1.32-.1h-3v5.48h2.7a9.12,9.12,0,0,0,1.43-.12,4.58,4.58,0,0,0,1.33-.41A2.41,2.41,0,0,0,76.21,22.73Z"/></svg>