<svg xmlns="http://www.w3.org/2000/svg" width="580" height="163" viewBox="0 0 580 163">
  <path d="M73.27,31.34C235.86-7.06,393-15.94,514.68,39.19c1.75,18.54,1.6,92.15-21.54,91.8q-202.69-51-406.61-.15C68.14,141.24,57.18,31.22,73.27,31.34Z" style="fill: #0098ff"/>
  <path d="M577.68,89.3c-17.19-7.73-37.35-12.48-59.11-15.6a195.69,195.69,0,0,1-11.24,52.64c-7.55,16.84-28,2.76-41.06,1.93-.94,3.11-9.58,11.92-2.72,13.74,36.7,5,68,11.73,93.06,20.58a3.43,3.43,0,0,0,3.91-4.65c.1-2.67-18.6-38.19-13.34-39.52C547.77,115.9,590.81,92.75,577.68,89.3Z" style="fill: #0098ff"/>
  <path d="M2.51,89.3C19.7,81.57,39.86,76.82,61.62,73.7a195.31,195.31,0,0,0,11.24,52.64c7.54,16.84,28,2.76,41.05,1.93,1,3.11,9.59,11.92,2.73,13.74-36.7,5-68,11.73-93.06,20.58a3.43,3.43,0,0,1-3.91-4.65c-.1-2.67,18.6-38.19,13.34-39.52C32.42,115.9-10.63,92.75,2.51,89.3Z" style="fill: #0098ff"/>
  <g>
    <path d="M95.17,88.29q-3.12-13.94-6.23-27.87,3-.68,6-1.32,7.32,6.57,14.45,13.25l.28,0-3.18-15.62q3.56-.74,7.12-1.42,2.75,14,5.48,28l-5.78,1.15Q106.21,77.64,98.93,71l-.25,0,3.39,15.77C99.77,87.27,97.47,87.77,95.17,88.29Z" style="fill: #fff"/>
    <path d="M143.82,66.67,144,68c1.12,6.86-2.17,11.56-9,12.77s-11.64-2-12.94-8.84l-.24-1.29c-1.2-6.24,2-11.49,9.13-12.75S142.79,60.38,143.82,66.67Zm-14.55,2.41.3,1.67c.47,2.57,1.75,5.2,4.47,4.72s3-3.37,2.56-6c-.1-.55-.2-1.11-.29-1.67-.48-2.78-1.78-5.19-4.46-4.72S128.77,66.34,129.27,69.08Z" style="fill: #fff"/>
    <path d="M177.09,73.89c-2.6.33-5.19.68-7.78,1q-2.81-7-5.68-14.09l-.25,0q-.8,7.56-1.53,15.12c-2.61.38-5.22.78-7.83,1.18q-4.54-10.64-9.21-21.23l7.56-1.19q2.52,7.45,5,14.91l.29-.05q.61-7.92,1.29-15.84l7-1q2.88,7.41,5.69,14.85l.29,0c.21-5.24.42-10.47.66-15.7,2.49-.33,5-.64,7.48-1Q178.52,62.41,177.09,73.89Z" style="fill: #fff"/>
    <path d="M193,43.26q6.78-.73,13.57-1.36c5.57-.51,9.55,1.77,9.9,6.17a6.12,6.12,0,0,1-4.83,6.65l0,.33c3.19-.09,6.89,1.73,7.25,6.29.42,5.2-3.86,8.45-9.38,9q-6.75.63-13.49,1.35Q194.51,57.46,193,43.26Zm8.88,10.63,3.23-.31c3-.29,4.08-1.75,3.92-3.56s-1.63-3-4-2.76l-3.75.36Q201.55,50.76,201.87,53.89ZM203,65.71l3.53-.34c3.42-.32,4.7-1.88,4.51-4s-1.78-3.47-4.72-3.2l-4,.39Q202.68,62.13,203,65.71Z" style="fill: #fff"/>
    <path d="M238,66.83l-.48,1.54C236,73,233.65,76.21,227,76.68a24.63,24.63,0,0,1-3.81,0c-.12-1.64-.25-3.28-.38-4.92a11.32,11.32,0,0,0,2,0c2.87-.22,3.61-1.21,3.67-2.79l.05-.42Q224.13,57.75,219.46,47c2.77-.22,5.53-.43,8.3-.62q2.46,8.1,4.84,16.21l.28,0q1.4-8.35,2.85-16.72l8-.46S238,66.44,238,66.83Z" style="fill: #fff"/>
    <path d="M263.17,67q-.37-11.23-.74-22.46l-7.91.29q-.14-3-.25-6.08Q266.15,38.22,278,38q0,3,.1,6.09c-2.64,0-5.28.1-7.92.16l.54,22.46Q267,66.83,263.17,67Z" style="fill: #fff"/>
    <path d="M278.62,56.12l0-1.65c-.12-7.13,4.68-10.79,10.83-10.81,6.58,0,10.86,4.12,10.79,10.8,0,.76,0,1.53,0,2.3q-7.15-.06-14.32,0v.82a3.79,3.79,0,0,0,3.87,4.06c1.92,0,3.42-.93,3.61-2.52,2.23,0,4.47,0,6.7,0-.29,3.5-3.26,7.74-10.29,7.76C283.32,66.92,278.74,63.41,278.62,56.12Zm14.47-3.43c0-2.3-1.4-4-3.59-3.95a3.65,3.65,0,0,0-3.65,4Z" style="fill: #fff"/>
    <path d="M305.38,36.5c2.53,0,5.07.08,7.61.13q-.33,15-.65,30.06c-2.46-.06-4.91-.1-7.37-.13Q305.17,51.53,305.38,36.5Z" style="fill: #fff"/>
    <path d="M317.5,56.35l0-1.65c.18-7.13,5.13-10.59,11.28-10.35,6.58.26,10.68,4.59,10.33,11.25L339,57.9q-7.15-.36-14.3-.62l0,.82a3.79,3.79,0,0,0,3.7,4.22c1.92.08,3.45-.78,3.71-2.36l6.69.31c-.44,3.49-3.58,7.6-10.61,7.32C321.73,67.33,317.31,63.63,317.5,56.35Zm14.61-2.82c.1-2.3-1.24-4-3.42-4.1a3.66,3.66,0,0,0-3.82,3.82C327.28,53.33,329.7,53.43,332.11,53.53Z" style="fill: #fff"/>
    <path d="M361.09,69.06q.42-5.69.86-11.37-5-.37-10.05-.71-.36,5.7-.73,11.38c-2.54-.16-5.08-.32-7.61-.46q.79-14.25,1.6-28.51c2.62.15,5.23.31,7.85.48L352.29,51q5.06.33,10.11.71l.84-11.1c2.61.2,5.21.41,7.82.63q-1.2,14.22-2.39,28.45Z" style="fill: #fff"/>
    <path d="M374.65,59.68,374.8,58c.63-7.11,5.79-10.24,11.91-9.62,6.56.67,10.39,5.24,9.62,11.87-.09.76-.17,1.52-.26,2.29q-7.12-.81-14.25-1.51c0,.27-.05.54-.08.81a3.78,3.78,0,0,0,3.43,4.44c1.91.2,3.5-.56,3.86-2.12l6.67.73c-.66,3.45-4.06,7.36-11.07,6.64C378.2,70.91,374,66.94,374.65,59.68Zm14.77-1.89c.25-2.29-1-4.08-3.16-4.31a3.65,3.65,0,0,0-4.05,3.57C384.62,57.29,387,57.53,389.42,57.79Z" style="fill: #fff"/>
    <path d="M406,73.9c-4.41-.56-7.18-3.38-6.68-7.64.48-4.09,3.7-6.36,9.06-5.7l5.2.67c.08-.59.15-1.17.23-1.76.22-1.62-.74-2.67-2.48-2.9s-3,.63-3.23,2l-6.93-.85c.53-3.57,3.25-7.28,10.91-6.29,5.68.73,9.82,3.56,9,9.19L419,75.32l-6.85-.94c.11-.87.23-1.75.35-2.63l-.34,0C411.28,73.09,409.32,74.32,406,73.9Zm6.79-6.76c.1-.71.19-1.42.29-2.13L410,64.6c-1.94-.25-3.19.55-3.36,1.94-.2,1.6,1.09,2.6,2.58,2.79C410.91,69.55,412.57,68.72,412.78,67.14Z" style="fill: #fff"/>
    <path d="M429,46.38c2.52.37,5,.75,7.55,1.14l-4.62,29.71c-2.44-.38-4.87-.75-7.31-1.11Z" style="fill: #fff"/>
    <path d="M443.86,51.26l7.25,1.22-.87,5.05,4.37.77q-.48,2.69-.95,5.37l-4.34-.76-1.56,9c-.31,1.82.57,2.65,2.49,3,.57.1,1.19.19,1.42.21l-.9,5.11a24.09,24.09,0,0,1-3.18-.37c-5.84-1-8.1-3.1-7.34-7.77q.86-5.2,1.7-10.4l-3.38-.55q.44-2.7.86-5.39l3.6.58C443.31,54.63,443.58,53,443.86,51.26Z" style="fill: #fff"/>
    <path d="M461.21,51.7c2.5.46,5,.93,7.51,1.41q-1.05,5.51-2.11,11l.34.07c.9-1.47,3.33-3.33,7.22-2.56,4.55.91,7.09,4.29,6,9.65l-2.94,14.18q-3.63-.76-7.26-1.48l2.49-12.48c.61-3.07-1-4.29-2.67-4.62-2-.39-3.81.74-4.3,3.33q-1.2,6.21-2.38,12.43c-2.43-.47-4.85-.92-7.28-1.37Q458.51,66.5,461.21,51.7Z" style="fill: #fff"/>
    <path d="M496.53,60.42l-5.16,19q-3.15-.7-6.3-1.38,1.68-9.72,3.33-19.44Q492.47,59.51,496.53,60.42Zm-8.78,20.64c2.13.46,3.6,2.17,3.14,4.23s-2.52,3-4.62,2.55-3.57-2.16-3.13-4.25S485.61,80.59,487.75,81.06Z" style="fill: #fff"/>
  </g>
</svg>
